<?xml version="1.0" standalone="no"?>
<!DOCTYPE svg PUBLIC "-//W3C//DTD SVG 20010904//EN"
 "http://www.w3.org/TR/2001/REC-SVG-20010904/DTD/svg10.dtd">
<svg version="1.0" xmlns="http://www.w3.org/2000/svg"
 width="2200.000000pt" height="700.000000pt" viewBox="0 0 2200.000000 700.000000"
 preserveAspectRatio="xMidYMid meet">

<g transform="translate(0.000000,700.000000) scale(0.100000,-0.100000)"
fill="#000000" stroke="none">
<path d="M22 3498 l3 -3503 2 3497 3 3498 10988 3 10987 2 -10992 3 -10993 2
2 -3502z"/>
<path d="M3217 6222 l-27 -28 0 -1915 0 -1915 28 -27 28 -27 369 0 369 0 28
27 28 27 0 597 0 597 318 4 c304 5 321 6 416 31 193 52 350 149 508 315 188
198 284 396 351 727 19 96 22 140 22 355 -1 265 -11 353 -62 514 -110 349
-362 603 -694 696 -168 47 -220 50 -960 50 l-695 0 -27 -28z m1093 -801 c147
-7 172 -11 235 -37 120 -48 206 -159 236 -303 15 -71 6 -296 -15 -370 -37
-134 -107 -223 -211 -272 -76 -36 -150 -47 -352 -56 l-163 -6 0 526 0 527 53
-1 c28 0 126 -4 217 -8z"/>
<path d="M14175 6195 c-298 -47 -536 -165 -735 -366 -259 -261 -378 -627 -340
-1039 30 -329 122 -551 305 -735 177 -178 397 -291 747 -385 218 -59 375 -108
431 -136 120 -61 177 -149 177 -274 0 -41 -5 -93 -11 -114 -13 -49 -96 -133
-160 -164 -70 -34 -190 -54 -324 -54 -194 0 -342 39 -560 147 -146 72 -259
152 -386 273 l-87 82 -54 0 c-44 0 -59 -4 -76 -23 -22 -23 -22 -24 -22 -505
l0 -482 122 -61 c226 -113 428 -183 638 -221 148 -26 480 -36 630 -18 318 37
590 161 788 361 114 117 164 185 232 324 109 222 146 409 137 700 -8 236 -39
381 -118 540 -81 162 -214 302 -385 406 -156 94 -307 152 -651 250 -384 109
-475 161 -502 290 -24 110 -4 192 66 269 100 112 280 161 508 140 182 -18 358
-82 532 -196 97 -62 248 -186 264 -215 8 -15 21 -19 67 -19 51 0 62 4 85 28
l27 28 0 455 0 456 -118 56 c-210 101 -490 181 -724 206 -128 14 -403 12 -503
-4z"/>
<path d="M7900 6160 c-8 -5 -40 -20 -70 -34 -118 -53 -197 -167 -214 -307 -6
-47 -3 -71 18 -133 14 -41 34 -86 43 -98 38 -48 109 -109 153 -130 61 -30 64
-30 160 -31 73 -1 93 2 143 25 81 38 153 109 191 188 40 87 43 193 7 289 -53
139 -207 242 -361 240 -30 0 -62 -4 -70 -9z"/>
<path d="M10357 6102 l-27 -28 0 -1915 0 -1915 28 -27 28 -27 369 0 369 0 28
27 28 27 0 597 0 597 318 4 c304 5 321 6 416 31 193 52 350 149 508 315 188
198 284 396 351 727 19 96 22 140 22 355 -1 265 -11 353 -62 514 -110 349
-362 603 -694 696 -168 47 -220 50 -960 50 l-695 0 -27 -28z m1093 -801 c147
-7 172 -11 235 -37 120 -48 206 -159 236 -303 15 -71 6 -296 -15 -370 -37
-134 -107 -223 -211 -272 -76 -36 -150 -47 -352 -56 l-163 -6 0 526 0 527 53
-1 c28 0 126 -4 217 -8z"/>
<path d="M16779 6088 c-6 -24 -240 -875 -521 -1893 -280 -1017 -514 -1871
-520 -1896 -10 -42 -9 -50 11 -78 l23 -31 396 2 397 3 27 105 c15 58 59 232
99 388 l72 282 483 0 c450 0 484 -1 492 -17 5 -10 51 -186 103 -390 l94 -373
406 0 405 0 22 30 c12 16 22 34 22 41 0 6 -238 877 -530 1935 -291 1058 -530
1926 -530 1929 0 3 -211 5 -470 5 l-469 0 -12 -42z m610 -1756 c74 -290 137
-535 139 -544 4 -17 -14 -18 -278 -18 -264 0 -282 1 -278 18 54 224 274 1072
278 1072 3 0 65 -237 139 -528z"/>
<path d="M6556 5719 c3 -6 18 -16 33 -23 45 -19 364 -239 421 -290 8 -7 47
-37 85 -66 61 -46 170 -135 185 -150 3 -3 37 -32 75 -65 109 -93 375 -349 375
-361 0 -2 -53 -46 -117 -99 -112 -92 -289 -259 -398 -376 -186 -200 -346 -451
-406 -637 -12 -37 -28 -85 -35 -107 -36 -104 -45 -330 -19 -453 50 -238 181
-465 397 -686 59 -60 109 -108 112 -105 2 2 -3 40 -10 84 -21 116 -29 430 -15
540 66 503 285 976 691 1491 94 119 190 230 196 227 7 -5 -1 -18 -8 -15 -5 1
-8 -4 -8 -12 0 -8 -6 -21 -13 -28 -7 -7 -16 -21 -20 -30 -3 -10 -12 -18 -19
-18 -7 0 -23 -17 -34 -37 l-21 -37 89 -115 c49 -64 119 -161 155 -216 36 -55
76 -116 89 -135 63 -94 216 -404 247 -500 22 -65 47 -132 58 -153 13 -25 70
-268 81 -352 14 -100 15 -475 1 -570 -6 -44 -8 -84 -3 -89 5 -5 38 21 76 58
38 36 71 66 74 67 8 0 110 135 169 223 67 101 109 192 151 326 31 99 33 114
33 255 0 108 -5 169 -17 220 -22 90 -44 162 -62 202 -8 17 -14 34 -14 38 0 32
-162 305 -217 365 -13 14 -23 28 -23 32 0 3 -6 13 -13 20 -7 7 -35 40 -62 73
-128 152 -308 324 -519 495 -30 25 -55 49 -56 54 0 15 281 285 425 407 214
181 374 301 629 472 131 88 114 87 -82 -4 -46 -22 -86 -39 -89 -39 -3 0 -25
-13 -50 -30 -24 -16 -48 -30 -54 -30 -8 0 -281 -136 -319 -159 -8 -5 -73 -42
-145 -81 -198 -110 -585 -356 -585 -372 0 -4 -5 -8 -11 -8 -7 0 -9 9 -6 21 5
17 -14 33 -114 100 -66 43 -123 79 -125 79 -3 0 -24 13 -47 29 -42 29 -245
148 -347 204 -137 74 -401 207 -412 207 -6 0 -21 8 -32 18 -12 10 -50 31 -86
47 -36 15 -92 41 -126 56 -90 42 -116 51 -108 38z m1374 -806 c0 -12 -43 -53
-57 -53 -19 0 -16 8 15 35 27 25 42 31 42 18z m-80 -62 c0 -6 -4 -13 -10 -16
-5 -3 -10 1 -10 9 0 9 5 16 10 16 6 0 10 -4 10 -9z m-35 -21 c3 -5 1 -10 -4
-10 -6 0 -11 5 -11 10 0 6 2 10 4 10 3 0 8 -4 11 -10z m-55 -50 c0 -5 -4 -10
-10 -10 -5 0 -10 5 -10 10 0 6 5 10 10 10 6 0 10 -4 10 -10z m474 -46 c4 -9 4
-19 1 -22 -3 -3 -5 0 -5 6 0 22 -18 12 -30 -17 -6 -16 -21 -31 -31 -34 -25 -7
-22 0 16 46 34 41 40 44 49 21z"/>
<path d="M6840 5013 c-125 -45 -197 -119 -226 -234 -18 -70 -13 -121 20 -194
106 -232 439 -237 551 -8 40 81 40 185 0 267 -51 105 -166 177 -278 175 -29 0
-59 -3 -67 -6z"/>
<path d="M8993 5006 c-23 -6 -45 -14 -49 -19 -4 -4 -14 -7 -22 -7 -15 0 -94
-66 -101 -84 -2 -6 -11 -20 -21 -31 -9 -11 -25 -46 -35 -79 -16 -52 -16 -66
-5 -128 9 -47 24 -84 45 -114 31 -44 89 -94 109 -94 5 0 18 -8 28 -17 28 -25
197 -26 225 0 11 9 26 17 34 17 18 0 87 63 116 105 23 34 43 116 43 179 0 31
-11 65 -37 115 -20 39 -40 71 -44 71 -5 0 -22 14 -37 30 -16 17 -36 30 -44 30
-8 0 -28 6 -44 14 -41 19 -112 25 -161 12z"/>
<path d="M5670 4752 c0 -4 39 -34 88 -66 192 -131 391 -305 557 -487 110 -119
271 -355 336 -491 13 -27 26 -48 30 -48 4 0 17 26 29 58 12 31 49 110 83 175
l61 118 -29 27 c-17 15 -75 63 -130 107 -55 44 -104 84 -110 88 -31 25 -212
150 -225 155 -8 3 -17 9 -20 12 -12 16 -308 182 -465 261 -184 93 -205 102
-205 91z"/>
<path d="M10105 4665 c-71 -36 -134 -70 -139 -75 -6 -6 -16 -10 -23 -10 -8 0
-26 -8 -41 -19 -30 -20 -99 -62 -171 -102 -72 -40 -226 -141 -229 -150 -2 -5
-9 -9 -15 -9 -11 0 -79 -50 -212 -155 -21 -16 -47 -40 -58 -52 -12 -13 -25
-23 -29 -23 -10 0 -68 -61 -67 -70 0 -3 9 -18 19 -35 30 -47 110 -216 123
-257 15 -48 29 -48 53 1 42 85 87 165 99 177 7 7 37 50 68 96 31 46 87 121
126 166 39 45 71 84 71 87 0 3 30 34 67 68 37 34 94 88 127 120 33 31 63 57
67 57 3 0 20 14 38 31 18 16 49 42 70 57 168 120 201 145 201 153 0 15 -10 11
-145 -56z"/>
<path d="M8161 1505 c44 -63 57 -75 81 -75 15 0 28 4 28 10 0 5 -14 39 -32 75
l-32 65 -49 0 -48 0 52 -75z"/>
<path d="M4430 1490 l0 -50 50 0 50 0 0 50 0 50 -50 0 -50 0 0 -50z"/>
<path d="M5680 1445 c0 -52 -2 -95 -3 -95 -2 0 -18 7 -36 16 -104 52 -199 -65
-189 -235 5 -90 29 -146 72 -172 41 -25 66 -24 110 6 44 30 46 30 46 5 0 -17
7 -20 45 -20 l45 0 0 295 0 295 -45 0 -45 0 0 -95z m-2 -277 c2 -100 1 -108
-18 -118 -34 -18 -83 -8 -97 20 -17 34 -16 135 2 170 17 34 29 40 75 37 l35
-2 3 -107z"/>
<path d="M5896 1453 c-10 -49 -20 -98 -23 -110 -4 -20 -1 -23 25 -23 24 0 32
6 40 28 5 15 24 64 41 110 l30 82 -48 0 -48 0 -17 -87z"/>
<path d="M7660 1490 l0 -50 50 0 50 0 0 50 0 50 -50 0 -50 0 0 -50z"/>
<path d="M8640 1245 l0 -295 50 0 50 0 0 295 0 295 -50 0 -50 0 0 -295z"/>
<path d="M11740 1490 l0 -50 50 0 50 0 0 50 0 50 -50 0 -50 0 0 -50z"/>
<path d="M14010 1490 l0 -50 50 0 50 0 0 50 0 50 -50 0 -50 0 0 -50z"/>
<path d="M14590 1245 l0 -295 50 0 50 0 0 295 0 295 -50 0 -50 0 0 -295z"/>
<path d="M15960 1445 c0 -52 -2 -95 -3 -95 -2 0 -18 7 -36 16 -104 52 -199
-65 -189 -235 5 -90 29 -146 72 -172 41 -25 66 -24 110 6 44 30 46 30 46 5 0
-17 7 -20 45 -20 l45 0 0 295 0 295 -45 0 -45 0 0 -95z m-2 -277 c2 -100 1
-108 -18 -118 -34 -18 -83 -8 -97 20 -17 34 -16 135 2 170 17 34 29 40 75 37
l35 -2 3 -107z"/>
<path d="M17850 1490 l0 -50 50 0 50 0 0 50 0 50 -50 0 -50 0 0 -50z"/>
<path d="M3310 1231 l0 -281 50 0 50 0 0 89 0 88 66 6 c84 6 131 40 157 113
22 62 17 156 -10 192 -44 59 -66 67 -194 71 l-119 3 0 -281z m210 149 c13 -13
20 -33 20 -60 0 -55 -26 -80 -85 -80 l-45 0 0 80 0 80 45 0 c32 0 51 -6 65
-20z"/>
<path d="M5020 1430 c0 -57 -1 -60 -25 -60 -23 0 -25 -4 -25 -45 0 -41 2 -45
25 -45 l25 0 0 -130 c0 -145 8 -172 55 -195 36 -16 56 -18 104 -9 29 6 31 10
31 48 l0 42 -40 -4 c-35 -4 -41 -1 -50 23 -5 14 -10 71 -10 126 l0 99 50 0 50
0 0 45 0 45 -50 0 -50 0 0 60 0 60 -45 0 -45 0 0 -60z"/>
<path d="M10510 1430 c0 -57 -1 -60 -25 -60 -23 0 -25 -4 -25 -45 0 -41 2 -45
25 -45 l25 0 0 -130 c0 -145 8 -172 55 -195 36 -16 56 -18 104 -9 29 6 31 10
31 48 l0 42 -40 -4 c-35 -4 -41 -1 -50 23 -5 14 -10 71 -10 126 l0 99 50 0 50
0 0 45 0 45 -50 0 -50 0 0 60 0 60 -45 0 -45 0 0 -60z"/>
<path d="M11490 1430 c0 -57 -1 -60 -25 -60 -23 0 -25 -4 -25 -45 0 -41 2 -45
25 -45 l25 0 0 -130 c0 -145 8 -172 55 -195 36 -16 56 -18 104 -9 29 6 31 10
31 48 l0 42 -40 -4 c-35 -4 -41 -1 -50 23 -5 14 -10 71 -10 126 l0 99 50 0 50
0 0 45 0 45 -50 0 -50 0 0 60 0 60 -45 0 -45 0 0 -60z"/>
<path d="M16950 1430 c0 -57 -1 -60 -25 -60 -23 0 -25 -4 -25 -45 0 -41 2 -45
25 -45 l25 0 0 -130 c0 -145 8 -172 55 -195 36 -16 56 -18 104 -9 29 6 31 10
31 48 l0 42 -40 -4 c-35 -4 -41 -1 -50 23 -5 14 -10 71 -10 126 l0 99 50 0 50
0 0 45 0 45 -50 0 -50 0 0 60 0 60 -45 0 -45 0 0 -60z"/>
<path d="M17600 1430 c0 -57 -1 -60 -25 -60 -23 0 -25 -4 -25 -45 0 -41 2 -45
25 -45 l25 0 0 -130 c0 -145 8 -172 55 -195 36 -16 56 -18 104 -9 29 6 31 10
31 48 l0 42 -40 -4 c-35 -4 -41 -1 -50 23 -5 14 -10 71 -10 126 l0 99 50 0 50
0 0 45 0 45 -50 0 -50 0 0 60 0 60 -45 0 -45 0 0 -60z"/>
<path d="M4104 1369 c-40 -11 -90 -67 -103 -116 -6 -21 -11 -63 -11 -93 0
-112 45 -190 122 -211 124 -33 218 58 218 211 0 157 -97 247 -226 209z m102
-100 c16 -17 19 -37 19 -109 0 -72 -3 -92 -19 -109 -27 -30 -70 -27 -96 7 -19
24 -21 37 -18 108 2 63 7 87 22 103 24 27 68 27 92 0z"/>
<path d="M4725 1366 c-81 -30 -122 -119 -112 -242 11 -141 118 -211 261 -170
l56 17 0 54 0 54 -36 -24 c-26 -18 -50 -25 -84 -25 -56 0 -86 20 -99 68 l-10
32 121 0 121 0 -5 64 c-12 145 -97 214 -213 172z m99 -98 c33 -47 23 -58 -53
-58 -67 0 -69 1 -64 23 15 58 86 79 117 35z"/>
<path d="M6145 1374 c-11 -3 -30 -7 -42 -10 -20 -4 -23 -11 -23 -50 0 -44 1
-46 23 -39 41 14 115 17 136 6 12 -7 21 -20 21 -31 0 -20 -6 -23 -85 -35 -88
-15 -125 -57 -125 -142 0 -114 91 -166 181 -102 l29 20 0 -20 c0 -18 6 -21 50
-21 l50 0 0 160 c0 182 -9 219 -60 245 -33 17 -119 28 -155 19z m115 -274 c0
-56 -18 -73 -73 -68 -29 3 -32 6 -35 41 -5 55 13 71 86 76 20 1 22 -3 22 -49z"/>
<path d="M6620 1373 c-8 -3 -27 -15 -42 -25 -28 -19 -28 -19 -28 1 0 18 -6 21
-50 21 l-50 0 0 -285 0 -285 50 0 50 0 0 84 0 84 39 -15 c47 -18 78 -12 120
22 92 78 88 340 -8 389 -31 16 -54 19 -81 9z m33 -110 c35 -40 33 -162 -4
-202 -14 -15 -32 -21 -59 -21 l-40 0 0 114 c0 82 4 116 13 119 28 12 75 6 90
-10z"/>
<path d="M7020 1373 c-8 -3 -27 -15 -42 -25 -28 -19 -28 -19 -28 1 0 18 -6 21
-50 21 l-50 0 0 -285 0 -285 50 0 50 0 0 84 0 84 39 -15 c47 -18 78 -12 120
22 92 78 88 340 -8 389 -31 16 -54 19 -81 9z m33 -110 c35 -40 33 -162 -4
-202 -14 -15 -32 -21 -59 -21 l-40 0 0 114 c0 82 4 116 13 119 28 12 75 6 90
-10z"/>
<path d="M8135 1374 c-11 -3 -30 -7 -42 -10 -20 -4 -23 -11 -23 -54 l0 -51 30
16 c33 17 102 20 131 5 15 -9 29 -50 16 -50 -24 0 -128 -25 -149 -36 -37 -19
-58 -63 -58 -121 0 -114 91 -166 181 -102 l29 20 0 -20 c0 -18 6 -21 50 -21
l50 0 -1 158 c0 179 -9 217 -56 245 -32 18 -120 30 -158 21z m115 -274 c0 -56
-18 -73 -73 -68 -29 3 -32 6 -35 41 -5 55 13 71 86 76 20 1 22 -3 22 -49z"/>
<path d="M8905 1374 c-11 -3 -30 -7 -42 -10 -20 -4 -23 -11 -23 -50 0 -44 1
-46 23 -39 41 14 115 17 136 6 12 -7 21 -20 21 -31 0 -20 -6 -23 -85 -35 -88
-15 -125 -57 -125 -142 0 -114 91 -166 181 -102 l29 20 0 -20 c0 -18 6 -21 50
-21 l50 0 0 160 c0 182 -9 219 -60 245 -33 17 -119 28 -155 19z m115 -274 c0
-56 -18 -73 -73 -68 -29 3 -32 6 -35 41 -5 55 13 71 86 76 20 1 22 -3 22 -49z"/>
<path d="M9590 1373 c-8 -3 -27 -15 -42 -25 -28 -19 -28 -19 -28 1 0 18 -6 21
-50 21 l-50 0 0 -285 0 -285 50 0 50 0 0 84 0 84 39 -15 c47 -18 78 -12 120
22 92 78 88 340 -8 389 -31 16 -54 19 -81 9z m33 -110 c35 -40 33 -162 -4
-202 -14 -15 -32 -21 -59 -21 l-40 0 0 114 c0 82 4 116 13 119 28 12 75 6 90
-10z"/>
<path d="M10194 1369 c-40 -11 -90 -67 -103 -116 -6 -21 -11 -63 -11 -93 0
-112 45 -190 122 -211 124 -33 218 58 218 211 0 157 -97 247 -226 209z m102
-100 c16 -17 19 -37 19 -109 0 -72 -3 -92 -19 -109 -27 -30 -70 -27 -96 7 -19
24 -21 37 -18 108 2 63 7 87 22 103 24 27 68 27 92 0z"/>
<path d="M10855 1366 c-81 -30 -122 -119 -112 -242 11 -141 118 -211 261 -170
l56 17 0 54 0 54 -36 -24 c-26 -18 -50 -25 -84 -25 -56 0 -86 20 -99 68 l-10
32 121 0 121 0 -5 64 c-12 145 -97 214 -213 172z m99 -98 c33 -47 23 -58 -53
-58 -67 0 -69 1 -64 23 15 58 86 79 117 35z"/>
<path d="M11235 1366 c-95 -35 -141 -168 -104 -301 28 -101 150 -150 255 -103
21 10 24 18 24 70 l0 60 -31 -26 c-50 -42 -119 -35 -144 15 -31 58 -12 177 30
193 33 12 73 5 109 -19 l36 -24 0 58 c0 53 -2 59 -26 70 -43 19 -106 22 -149
7z"/>
<path d="M12034 1369 c-40 -11 -90 -67 -103 -116 -6 -21 -11 -63 -11 -93 0
-112 45 -190 122 -211 124 -33 218 58 218 211 0 157 -97 247 -226 209z m102
-100 c16 -17 19 -37 19 -109 0 -72 -3 -92 -19 -109 -27 -30 -70 -27 -96 7 -19
24 -21 37 -18 108 2 63 7 87 22 103 24 27 68 27 92 0z"/>
<path d="M12500 1369 c-14 -6 -35 -20 -47 -31 l-23 -21 0 26 c0 26 -2 27 -50
27 l-50 0 0 -210 0 -210 50 0 50 0 0 150 c0 140 1 150 20 160 33 18 73 8 87
-20 8 -16 13 -71 13 -157 l0 -133 45 0 45 0 0 173 c0 154 -2 175 -20 205 -29
47 -70 61 -120 41z"/>
<path d="M13017 1366 c-50 -18 -74 -41 -87 -82 -25 -75 17 -154 88 -170 81
-18 93 -25 90 -52 -3 -23 -8 -27 -42 -30 -53 -5 -79 3 -115 34 l-31 26 0 -61
0 -60 56 -17 c67 -19 128 -13 176 19 40 28 58 60 58 110 0 76 -24 99 -144 134
-69 21 -55 73 19 73 28 0 54 -8 79 -25 l36 -24 0 53 c0 46 -3 54 -25 64 -42
19 -117 23 -158 8z"/>
<path d="M13374 1369 c-40 -11 -90 -67 -103 -116 -6 -21 -11 -63 -11 -93 0
-112 45 -190 122 -211 124 -33 218 58 218 211 0 157 -97 247 -226 209z m102
-100 c16 -17 19 -37 19 -109 0 -72 -3 -92 -19 -109 -27 -30 -70 -27 -96 7 -19
24 -21 37 -18 108 2 63 7 87 22 103 24 27 68 27 92 0z"/>
<path d="M13775 1366 c-95 -35 -141 -168 -104 -301 28 -101 150 -150 255 -103
21 10 24 18 24 70 l0 60 -31 -26 c-50 -42 -119 -35 -144 15 -31 58 -12 177 30
193 33 12 73 5 109 -19 l36 -24 0 58 c0 53 -2 59 -26 70 -43 19 -106 22 -149
7z"/>
<path d="M14285 1374 c-11 -3 -30 -7 -42 -10 -20 -4 -23 -11 -23 -50 0 -44 1
-46 23 -39 41 14 115 17 136 6 12 -7 21 -20 21 -31 0 -20 -6 -23 -85 -35 -88
-15 -125 -57 -125 -142 0 -114 91 -166 181 -102 l29 20 0 -20 c0 -18 6 -21 50
-21 l50 0 0 160 c0 182 -9 219 -60 245 -33 17 -119 28 -155 19z m115 -274 c0
-56 -18 -73 -73 -68 -29 3 -32 6 -35 41 -5 55 13 71 86 76 20 1 22 -3 22 -49z"/>
<path d="M14885 1366 c-81 -30 -122 -119 -112 -242 11 -141 118 -211 261 -170
l56 17 0 54 0 54 -36 -24 c-26 -18 -50 -25 -84 -25 -56 0 -86 20 -99 68 l-10
32 121 0 121 0 -5 64 c-12 145 -97 214 -213 172z m99 -98 c33 -47 23 -58 -53
-58 -67 0 -69 1 -64 23 15 58 86 79 117 35z"/>
<path d="M15445 1374 c-11 -3 -30 -7 -42 -10 -20 -4 -23 -11 -23 -50 0 -44 1
-46 23 -39 41 14 115 17 136 6 12 -7 21 -20 21 -31 0 -20 -6 -23 -85 -35 -88
-15 -125 -57 -125 -142 0 -114 91 -166 181 -102 l29 20 0 -20 c0 -18 6 -21 50
-21 l50 0 0 160 c0 182 -9 219 -60 245 -33 17 -119 28 -155 19z m115 -274 c0
-56 -18 -73 -73 -68 -29 3 -32 6 -35 41 -5 55 13 71 86 76 20 1 22 -3 22 -49z"/>
<path d="M16225 1374 c-11 -3 -30 -7 -42 -10 -20 -4 -23 -11 -23 -50 0 -44 1
-46 23 -39 41 14 115 17 136 6 12 -7 21 -20 21 -31 0 -20 -6 -23 -85 -35 -88
-15 -125 -57 -125 -142 0 -114 91 -166 181 -102 l29 20 0 -20 c0 -18 6 -21 50
-21 l50 0 0 160 c0 182 -9 219 -60 245 -33 17 -119 28 -155 19z m115 -274 c0
-56 -18 -73 -73 -68 -29 3 -32 6 -35 41 -5 55 13 71 86 76 20 1 22 -3 22 -49z"/>
<path d="M16710 1373 c-8 -3 -27 -15 -42 -25 -28 -19 -28 -19 -28 1 0 18 -6
21 -50 21 l-50 0 0 -285 0 -285 50 0 50 0 0 84 0 84 39 -15 c47 -18 78 -12
120 22 92 78 88 340 -8 389 -31 16 -54 19 -81 9z m33 -110 c35 -40 33 -162 -4
-202 -14 -15 -32 -21 -59 -21 l-40 0 0 114 c0 82 4 116 13 119 28 12 75 6 90
-10z"/>
<path d="M17275 1374 c-11 -3 -30 -7 -42 -10 -20 -4 -23 -11 -23 -50 0 -44 1
-46 23 -39 41 14 115 17 136 6 12 -7 21 -20 21 -31 0 -20 -6 -23 -85 -35 -88
-15 -125 -57 -125 -142 0 -114 91 -166 181 -102 l29 20 0 -20 c0 -18 6 -21 50
-21 l50 0 0 160 c0 182 -9 219 -60 245 -33 17 -119 28 -155 19z m115 -274 c0
-56 -18 -73 -73 -68 -29 3 -32 6 -35 41 -5 55 13 71 86 76 20 1 22 -3 22 -49z"/>
<path d="M18515 1366 c-81 -30 -122 -119 -112 -242 11 -141 118 -211 261 -170
l56 17 0 54 0 54 -36 -24 c-26 -18 -50 -25 -84 -25 -56 0 -86 20 -99 68 l-10
32 121 0 121 0 -5 64 c-12 145 -97 214 -213 172z m99 -98 c33 -47 23 -58 -53
-58 -67 0 -69 1 -64 23 15 58 86 79 117 35z"/>
<path d="M3720 1160 l0 -210 50 0 50 0 0 150 0 150 25 6 c14 3 43 4 65 2 l40
-4 0 58 c0 44 -4 58 -14 58 -25 0 -70 -20 -93 -42 l-23 -21 0 31 c0 32 -1 32
-50 32 l-50 0 0 -210z"/>
<path d="M4380 1325 c0 -44 1 -45 31 -45 l31 0 -4 -173 c-3 -196 -8 -211 -65
-205 l-33 4 0 -48 c0 -46 1 -47 34 -54 50 -9 89 3 122 37 l29 30 3 250 3 249
-76 0 -75 0 0 -45z"/>
<path d="M7250 1213 c0 -87 5 -175 11 -196 20 -73 103 -97 166 -48 32 26 43
26 43 1 0 -17 7 -20 45 -20 l45 0 0 210 0 210 -45 0 -45 0 0 -144 c0 -162 -5
-176 -64 -176 -53 0 -58 15 -64 175 l-5 145 -43 0 -44 0 0 -157z"/>
<path d="M7660 1160 l0 -210 50 0 50 0 0 210 0 210 -50 0 -50 0 0 -210z"/>
<path d="M9820 1160 l0 -210 50 0 50 0 0 150 0 150 25 6 c14 3 43 4 65 2 l40
-4 0 58 c0 44 -4 58 -14 58 -25 0 -70 -20 -93 -42 l-23 -21 0 31 c0 32 -1 32
-50 32 l-50 0 0 -210z"/>
<path d="M11740 1160 l0 -210 50 0 50 0 0 210 0 210 -50 0 -50 0 0 -210z"/>
<path d="M14010 1160 l0 -210 50 0 50 0 0 210 0 210 -50 0 -50 0 0 -210z"/>
<path d="M17850 1160 l0 -210 50 0 50 0 0 210 0 210 -50 0 -50 0 0 -210z"/>
<path d="M18073 1160 l60 -211 55 3 55 3 59 200 c32 110 58 204 58 208 0 4
-21 7 -47 5 l-47 -3 -37 -145 c-25 -101 -39 -139 -44 -127 -4 10 -22 76 -39
145 l-32 127 -51 3 -51 3 61 -211z"/>
</g>
</svg>
